<svg xmlns="http://www.w3.org/2000/svg" viewBox="0 0 100 100">
  <defs>
    <linearGradient id="bg" x1="0" y1="0" x2="1" y2="1">
      <stop offset="0" stop-color="#14b8a6"/>
      <stop offset="1" stop-color="#0f766e"/>
    </linearGradient>
  </defs>
  <!-- Achtergrond: zelfde verloop als Batterijmaatje -->
  <rect x="2" y="2" width="96" height="96" rx="22" fill="url(#bg)"/>
  <!-- Zonnestralen -->
  <g stroke="#fde68a" stroke-width="5.5" stroke-linecap="round">
    <line x1="50" y1="9" x2="50" y2="17"/>
    <line x1="24" y1="20" x2="29.5" y2="25.5"/>
    <line x1="76" y1="20" x2="70.5" y2="25.5"/>
    <line x1="15" y1="42" x2="23" y2="42"/>
    <line x1="85" y1="42" x2="77" y2="42"/>
  </g>
  <!-- Gezichtje: het zonnemaatje -->
  <circle cx="50" cy="42" r="19" fill="#f59e0b"/>
  <circle cx="43.5" cy="38.5" r="3.4" fill="#134e4a"/>
  <circle cx="56.5" cy="38.5" r="3.4" fill="#134e4a"/>
  <path d="M42 46.5 Q50 54 58 46.5" fill="none" stroke="#134e4a" stroke-width="3.4" stroke-linecap="round"/>
  <!-- Zonnepaneel -->
  <g>
    <rect x="14" y="68" width="72" height="24" rx="5" fill="#ffffff"/>
    <rect x="17" y="71" width="66" height="18" rx="3" fill="#0a3733"/>
    <line x1="33" y1="72" x2="33" y2="88" stroke="#2dd4bf" stroke-width="2.2"/>
    <line x1="50" y1="72" x2="50" y2="88" stroke="#2dd4bf" stroke-width="2.2"/>
    <line x1="67" y1="72" x2="67" y2="88" stroke="#2dd4bf" stroke-width="2.2"/>
    <line x1="18" y1="80" x2="82" y2="80" stroke="#2dd4bf" stroke-width="2.2"/>
  </g>
</svg>
